<?xml version="1.0" encoding="UTF-8"?>
<svg width="138px" height="80px" viewBox="0 0 138 80" version="1.1" xmlns="http://www.w3.org/2000/svg" xmlns:xlink="http://www.w3.org/1999/xlink">
    <!-- Generator: Sketch 49.1 (51147) - http://www.bohemiancoding.com/sketch -->
    <title>h</title>
    <desc>Created with Sketch.</desc>
    <defs></defs>
    <g id="Page-1" stroke="none" stroke-width="1" fill="none" fill-rule="evenodd">
        <path d="M49.416,58.856 L48.048,58.784 L47.688,60.656 L48.912,60.944 C49.128,60.224 49.2,59.576 49.416,58.856 Z M53.448,54.608 L53.52,56.408 L57.048,56.336 C57.12,55.904 57.12,55.544 57.408,55.112 L53.448,54.608 Z M48.192,56.624 L49.776,56.624 C49.848,56.048 49.848,55.472 49.848,55.04 C49.848,54.68 49.848,54.032 49.776,53.528 L47.976,52.952 C48.192,54.824 48.192,55.688 48.192,56.624 Z M63.456,55.184 L63.816,51.944 C62.448,51.944 61.08,52.088 60,53.24 L62.448,55.76 C62.808,55.472 63.24,55.256 63.456,55.184 Z M66.84,40.136 C64.968,39.92 62.52,39.92 60.792,39.92 L62.16,42.656 C63.96,42.08 65.256,41.36 66.84,40.136 Z M47.688,49.352 L49.056,49.28 C48.48,46.256 46.392,42.656 44.952,41.216 L43.872,41.792 C45.6,44.024 46.824,46.328 47.688,49.352 Z M115.512,36.248 L113.136,54.104 C113.568,54.392 113.856,54.752 114.288,54.968 L115.728,36.392 L115.512,36.248 Z M114.936,34.952 L115.224,33.584 C114.288,33.512 113.352,33.368 112.416,33.368 C108.888,33.368 105.36,34.304 101.976,36.248 L102.552,37.4 C105.864,35.744 109.032,34.808 112.344,34.808 C113.208,34.808 114.072,34.88 114.936,34.952 Z M50.856,61.304 L60.216,62.744 C58.488,61.952 57.624,60.512 57.048,59.432 L51.216,59 C51.144,59.792 51.072,60.512 50.856,61.304 Z M42.36,40.136 L43.44,39.416 C40.992,36.176 35.736,33.728 31.992,33.224 L31.632,34.52 C35.664,35.312 38.76,36.968 42.36,40.136 Z M29.112,57.344 L46.248,60.44 C46.392,59.864 46.536,59.36 46.608,58.784 C41.856,58.712 35.88,57.56 30.552,55.832 C30.192,56.48 29.76,57.056 29.112,57.344 Z M67.416,61.016 L64.968,58.784 C64.752,58.928 64.464,59.072 64.104,59.072 C63.24,59.072 62.592,58.784 62.16,58.28 L58.992,59.864 C59.928,61.808 62.232,62.456 64.392,62.456 C65.256,62.456 66.984,61.664 67.416,61.016 Z M100.608,38.912 L99.96,37.472 C93.768,41.504 90.456,47.912 90.456,55.832 L92.04,55.832 C92.04,48.776 95.352,42.44 100.608,38.912 Z M30.048,34.304 L30.336,32.864 C29.256,32.72 28.176,32.72 27.6,32.72 C19.752,32.72 12.48,36.464 7.44,44.744 L9.096,45.392 C14.136,36.536 21.768,34.232 27.744,34.232 C28.248,34.232 29.184,34.232 30.048,34.304 Z M47.04,55.112 C47.04,54.32 46.896,53.6 46.824,52.808 L30.768,53.168 L30.552,53.528 C36.456,55.544 40.992,56.336 46.896,56.552 C47.04,56.048 47.04,55.616 47.04,55.112 Z M39.192,49.784 L46.32,49.496 C45.672,46.904 44.448,44.528 42.936,42.512 C38.616,45.032 35.376,47.408 32.928,50.216 C35.232,49.928 37.68,49.856 39.192,49.784 Z M41.352,40.784 C38.76,38.264 35.448,36.536 31.416,35.744 L28.392,51.368 C28.968,51.08 29.688,50.864 30.48,50.576 C34.08,46.256 36.96,43.736 41.352,40.784 Z M52.728,49.136 L62.88,48.488 L61.44,45.824 C60.864,46.04 60.504,46.184 59.928,46.184 C59.496,46.184 58.92,45.248 58.92,44.6 C58.92,44.024 59.352,43.808 60.072,43.448 L56.04,35.384 L54.672,35.96 C54.672,36.464 54.528,36.896 54.168,37.04 L48.12,39.704 C49.992,42.368 52.008,45.608 52.728,49.136 Z M8.592,46.112 L7.008,45.392 C5.352,48.2 4.704,53.528 4.704,55.472 C4.704,66.848 13.992,77.288 26.736,77.288 C37.824,77.288 45.672,70.664 48.84,61.592 L47.4,61.376 C45.24,67.64 37.824,75.848 26.592,75.848 C14.64,75.848 6.288,65.048 6.288,55.688 C6.288,52.88 7.008,48.848 8.592,46.112 Z M113.208,36.104 C109.608,36.104 106.152,37.184 103.2,38.984 C106.008,46.04 109.176,50.432 112.488,53.528 L114.792,36.176 C114.36,36.176 113.784,36.104 113.208,36.104 Z M93.408,55.832 L111.336,55.832 C107.448,52.376 105.216,48.632 103.992,45.968 L101.328,40.136 C96.576,43.736 93.408,49.28 93.408,55.832 Z M135.888,55.4 C135.888,46.76 128.328,35.456 116.808,33.8 L116.664,35.24 C127.176,37.4 134.304,46.256 134.304,54.968 C134.304,67.856 124.872,76.424 113.496,76.424 C103.2,76.424 93.624,69.008 91.968,56.84 L90.456,56.84 C91.464,69.296 101.832,77.936 113.496,77.936 C124.944,77.936 135.888,69.728 135.888,55.4 Z M92.76,27.536 C74.976,32.144 76.992,39.128 63.24,45.176 L64.896,48.416 C66.984,48.488 69.504,50.144 70.944,51.872 C82.536,42.152 78.072,38.48 92.76,27.536 Z M27.024,35.312 C20.256,35.312 13.848,39.92 10.32,45.968 L25.296,52.304 C25.728,51.8 26.232,51.512 26.88,51.368 L29.904,35.456 C28.968,35.384 28.032,35.312 27.024,35.312 Z M24.36,54.608 C24.36,54.032 24.504,53.528 24.72,53.096 L9.888,46.832 C8.52,49.424 7.728,52.304 7.728,55.112 C7.656,65.048 15.72,74.48 27.024,74.48 C35.304,74.48 43.296,69.224 46.032,61.16 L26.376,57.56 C25.152,57.128 24.36,55.976 24.36,54.608 Z M115.584,56.48 C115.584,57.344 114.864,58.064 114,57.992 C113.496,57.992 112.848,57.344 112.416,56.84 L93.48,56.84 C94.2,66.416 102.912,74.984 113.208,74.984 C124.008,74.984 133.008,66.92 133.008,55.544 C133.008,45.968 125.52,38.048 116.448,36.464 L114.864,55.472 C115.296,55.76 115.584,56.048 115.584,56.48 Z M137.688,56.048 C137.688,69.728 126.816,79.448 113.568,79.448 C100.896,79.448 92.472,70.952 89.304,61.232 L87.072,63.392 C87.432,62.168 87.648,61.088 87.648,60.008 C87.648,58.28 87.36,55.832 87.432,54.104 C87.504,49.352 89.16,40.856 98.376,33.872 L96.36,28.832 C82.032,38.984 86.136,42.008 72.096,54.896 L72.528,55.76 L70.368,56.192 C70.368,57.272 70.296,58.568 69.936,59.648 L73.104,61.016 L77.928,61.016 C78.216,61.016 78.36,61.16 78.36,61.376 C78.36,62.024 77.568,63.464 76.92,63.464 L72.096,63.464 C71.952,63.464 71.88,63.392 71.88,63.104 C71.88,62.816 72.096,62.24 72.456,61.808 L69.432,60.584 C67.848,62.888 65.616,63.752 63.384,63.752 C61.8,63.752 54.96,62.6 50.712,62.024 C47.472,72.68 37.032,79.304 27.312,79.304 C13.488,79.304 3.12,68.072 3.12,55.184 C3.12,54.248 3.264,51.296 3.696,50.216 C2.76,50.792 1.536,51.08 0.6,51.08 C3.912,48.056 3.264,45.032 6.792,39.848 C6.504,39.272 6.288,38.84 6.288,38.192 C6.288,36.968 6.432,34.952 7.224,34.952 C8.016,34.952 9.024,35.744 9.888,36.608 C13.704,32.576 21.048,29.12 27.672,29.12 C34.44,29.12 41.928,32.432 46.464,37.688 C48.624,36.536 52.296,34.232 53.016,34.232 C53.376,34.232 53.664,34.304 53.952,34.52 L55.32,33.8 L53.808,30.992 C53.808,30.704 53.808,30.344 54.096,30.128 L51.288,23.864 L49.992,23.864 C49.56,25.232 49.2,26.6 48.408,26.6 C47.688,26.6 45.672,23.936 45.672,23.144 C45.672,22.568 45.96,21.992 46.824,21.704 C46.824,21.488 46.896,21.2 47.04,20.984 C46.032,19.832 42.864,19.688 42.864,18.608 C42.864,17.024 42.72,15.368 43.944,15.296 C45.168,15.224 47.04,15.656 48.912,15.656 C53.16,15.656 61.512,15.08 61.512,18.608 C61.512,19.184 60.72,19.832 58.632,20.408 C58.344,21.488 55.752,23.216 52.368,23.864 L55.176,29.624 C55.392,29.624 55.752,29.696 55.896,30.056 L59.784,38.048 C62.88,38.048 65.976,38.12 69.144,38.336 C78.288,28.904 80.52,26.816 93.912,22.784 L93.264,21.056 C93.264,20.696 93.336,20.192 93.552,19.976 C92.328,16.52 91.176,14.864 91.176,14.288 C91.176,12.992 93.768,11.264 93.912,10.04 C93.048,9.104 88.656,5 87.72,4.712 C86.424,4.28 85.2,3.776 84.336,3.776 C83.616,4.208 83.256,4.856 82.392,4.856 C81.6,4.856 80.376,3.776 79.512,3.344 C78.576,3.2 75.984,2.912 74.976,2.84 C74.76,2.552 74.544,2.12 74.544,1.832 C74.544,1.328 74.616,1.184 74.976,0.608 L81.096,0.896 C81.6,0.896 82.896,0.824 83.832,0.824 C84.408,0.824 85.344,1.76 85.488,2.624 C86.64,2.84 87.432,3.272 88.44,3.632 C89.952,4.208 96.792,9.752 96.792,10.328 C96.792,10.76 96.144,12.128 95.64,12.128 C95.424,12.128 95.136,11.624 94.92,11.336 C94.272,12.272 92.76,13.64 92.76,14.144 C92.76,15.08 93.984,17.816 94.632,19.616 C94.92,19.616 95.496,19.904 95.64,20.264 L100.68,32.792 C104.496,30.848 108.816,29.84 113.064,29.84 C116.376,29.84 119.4,30.488 122.712,31.712 L121.56,32.864 C133.584,38.408 137.688,47.336 137.688,56.048 Z" id="h" fill="#FFFFFF"></path>
    </g>
</svg>