<?xml version="1.0" encoding="utf-8"?>
<!-- Generator: Adobe Illustrator 21.1.0, SVG Export Plug-In . SVG Version: 6.00 Build 0)  -->
<svg version="1.1" id="Layer_1" xmlns="http://www.w3.org/2000/svg" xmlns:xlink="http://www.w3.org/1999/xlink" x="0px" y="0px"
	 viewBox="0 0 200 200" style="enable-background:new 0 0 200 200;" xml:space="preserve">
<style type="text/css">
	.st0{fill:url(#SVGID_1_);}
	.st1{fill:url(#SVGID_2_);}
	.st2{fill:url(#SVGID_3_);}
	.st3{fill:url(#SVGID_4_);}
	.st4{fill:url(#SVGID_5_);}
	.st5{fill:url(#SVGID_6_);}
	.st6{fill:url(#SVGID_7_);}
	.st7{fill:url(#SVGID_8_);}
	.st8{fill:url(#SVGID_9_);}
</style>
<g>
	<g>
		<linearGradient id="SVGID_1_" gradientUnits="userSpaceOnUse" x1="-1" y1="12.5504" x2="199.1599" y2="12.5504">
			<stop  offset="0" style="stop-color:#F4DB47"/>
			<stop  offset="1" style="stop-color:#EBB222"/>
		</linearGradient>
		<path class="st0" d="M90.5,25.1h19.7c1.1,0,1.8-1.1,1.4-2.1l-9.9-22.1c-0.5-1.2-2.2-1.2-2.7,0L89.1,23
			C88.7,24,89.4,25.1,90.5,25.1z"/>
	</g>
	<g>
		<linearGradient id="SVGID_2_" gradientUnits="userSpaceOnUse" x1="-1" y1="46.3871" x2="199.1599" y2="46.3871">
			<stop  offset="0" style="stop-color:#F4DB47"/>
			<stop  offset="1" style="stop-color:#EBB222"/>
		</linearGradient>
		<path class="st1" d="M164.7,58.4c0.7,0.8,2,0.6,2.5-0.4L177,36c0.5-1.2-0.6-2.4-1.8-2l-23,7.4c-1,0.3-1.4,1.6-0.7,2.4L164.7,58.4z
			"/>
	</g>
	<g>
		<linearGradient id="SVGID_3_" gradientUnits="userSpaceOnUse" x1="-1" y1="99.2876" x2="199.1599" y2="99.2876">
			<stop  offset="0" style="stop-color:#F4DB47"/>
			<stop  offset="1" style="stop-color:#EBB222"/>
		</linearGradient>
		<path class="st2" d="M173.9,89.4l0,19.7c0,1.1,1.1,1.8,2.1,1.4l22.1-9.9c1.2-0.5,1.2-2.2,0-2.7L176,88
			C175,87.6,173.9,88.3,173.9,89.4z"/>
	</g>
	<g>
		<linearGradient id="SVGID_4_" gradientUnits="userSpaceOnUse" x1="-1" y1="46.3871" x2="199.1599" y2="46.3871">
			<stop  offset="0" style="stop-color:#F4DB47"/>
			<stop  offset="1" style="stop-color:#EBB222"/>
		</linearGradient>
		<path class="st3" d="M32.8,58c0.4,1,1.8,1.2,2.5,0.4l13.2-14.7c0.7-0.8,0.4-2.1-0.7-2.4l-23-7.4c-1.2-0.4-2.4,0.9-1.8,2L32.8,58z"
			/>
	</g>
	<g>
		<linearGradient id="SVGID_5_" gradientUnits="userSpaceOnUse" x1="-1" y1="187.4496" x2="199.1599" y2="187.4496">
			<stop  offset="0" style="stop-color:#F4DB47"/>
			<stop  offset="1" style="stop-color:#EBB222"/>
		</linearGradient>
		<path class="st4" d="M110.2,174.9H90.5c-1.1,0-1.8,1.1-1.4,2.1l9.9,22.1c0.5,1.2,2.2,1.2,2.7,0l9.9-22.1
			C112.1,176,111.3,174.9,110.2,174.9z"/>
	</g>
	<g>
		<linearGradient id="SVGID_6_" gradientUnits="userSpaceOnUse" x1="-1" y1="153.0207" x2="199.1599" y2="153.0207">
			<stop  offset="0" style="stop-color:#F4DB47"/>
			<stop  offset="1" style="stop-color:#EBB222"/>
		</linearGradient>
		<path class="st5" d="M167.2,141.4c-0.4-1-1.8-1.2-2.5-0.4l-13.2,14.7c-0.7,0.8-0.4,2.1,0.7,2.4l23,7.4c1.2,0.4,2.4-0.9,1.8-2
			L167.2,141.4z"/>
	</g>
	<g>
		<linearGradient id="SVGID_7_" gradientUnits="userSpaceOnUse" x1="-1" y1="153.0207" x2="199.1599" y2="153.0207">
			<stop  offset="0" style="stop-color:#F4DB47"/>
			<stop  offset="1" style="stop-color:#EBB222"/>
		</linearGradient>
		<path class="st6" d="M35.3,141c-0.7-0.8-2-0.6-2.5,0.4L23,163.5c-0.5,1.2,0.6,2.4,1.8,2l23-7.4c1-0.3,1.4-1.6,0.7-2.4L35.3,141z"
			/>
	</g>
	<g>
		<linearGradient id="SVGID_8_" gradientUnits="userSpaceOnUse" x1="-1" y1="99.2876" x2="199.1599" y2="99.2876">
			<stop  offset="0" style="stop-color:#F4DB47"/>
			<stop  offset="1" style="stop-color:#EBB222"/>
		</linearGradient>
		<path class="st7" d="M26.1,109.2l0-19.7c0-1.1-1.1-1.8-2.1-1.4L1.9,97.9c-1.2,0.5-1.2,2.2,0,2.7l22.1,9.9
			C24.9,111,26.1,110.2,26.1,109.2z"/>
	</g>
	<g>
		<linearGradient id="SVGID_9_" gradientUnits="userSpaceOnUse" x1="-1" y1="99.8811" x2="199.1599" y2="99.8811">
			<stop  offset="0" style="stop-color:#F4DB47"/>
			<stop  offset="1" style="stop-color:#EBB222"/>
		</linearGradient>
		<circle class="st8" cx="99.8" cy="99.9" r="59.1"/>
	</g>
</g>
</svg>
