<?xml version="1.0" encoding="utf-8"?>
<!-- Generator: Adobe Illustrator 21.1.0, SVG Export Plug-In . SVG Version: 6.00 Build 0)  -->
<svg version="1.1" id="Layer_1" xmlns="http://www.w3.org/2000/svg" xmlns:xlink="http://www.w3.org/1999/xlink" x="0px" y="0px"
	 viewBox="0 0 200 180" style="enable-background:new 0 0 200 180;" xml:space="preserve">
<style type="text/css">
	.st0{display:none;fill:url(#SVGID_1_);}
	.st1{fill:url(#SVGID_2_);}
	.st2{fill:url(#SVGID_3_);}
	.st3{fill:url(#SVGID_4_);}
	.st4{fill:url(#SVGID_5_);}
	.st5{fill:url(#SVGID_6_);}
	.st6{fill:url(#SVGID_7_);}
</style>
<linearGradient id="SVGID_1_" gradientUnits="userSpaceOnUse" x1="110" y1="186" x2="110" y2="21" gradientTransform="matrix(1 0 0 -1 0 182)">
	<stop  offset="0" style="stop-color:#DB7D16"/>
	<stop  offset="1" style="stop-color:#EBB222"/>
</linearGradient>
<rect x="-17" y="-4" class="st0" width="254" height="165"/>
<g>
	<g>
		<linearGradient id="SVGID_2_" gradientUnits="userSpaceOnUse" x1="100.5669" y1="33" x2="100.5669" y2="151.423">
			<stop  offset="0" style="stop-color:#E28617"/>
			<stop  offset="1" style="stop-color:#EBB222"/>
		</linearGradient>
		<path class="st1" d="M89.8,41.6h21.5c0.6,0,0.9-0.6,0.7-1.1l-10.7-24c-0.3-0.6-1.1-0.6-1.4,0l-10.7,24
			C88.9,41,89.3,41.6,89.8,41.6z"/>
	</g>
	<g>
		<linearGradient id="SVGID_3_" gradientUnits="userSpaceOnUse" x1="162.9388" y1="33" x2="162.9388" y2="151.423">
			<stop  offset="0" style="stop-color:#E28617"/>
			<stop  offset="1" style="stop-color:#EBB222"/>
		</linearGradient>
		<path class="st2" d="M164.2,75c0.4,0.4,1,0.3,1.3-0.2l10.7-24c0.3-0.6-0.3-1.2-0.9-1l-25.1,8.1c-0.5,0.2-0.7,0.8-0.3,1.2L164.2,75
			z"/>
	</g>
	<g>
		<linearGradient id="SVGID_4_" gradientUnits="userSpaceOnUse" x1="185.2451" y1="33" x2="185.2451" y2="151.423">
			<stop  offset="0" style="stop-color:#E28617"/>
			<stop  offset="1" style="stop-color:#EBB222"/>
		</linearGradient>
		<path class="st3" d="M172.5,103.4l0,21.5c0,0.6,0.6,0.9,1.1,0.7l24-10.8c0.6-0.3,0.6-1.1,0-1.4l-24-10.7
			C173,102.4,172.5,102.8,172.5,103.4z"/>
	</g>
	<g>
		<linearGradient id="SVGID_5_" gradientUnits="userSpaceOnUse" x1="37.4627" y1="33" x2="37.4627" y2="151.423">
			<stop  offset="0" style="stop-color:#E28617"/>
			<stop  offset="1" style="stop-color:#EBB222"/>
		</linearGradient>
		<path class="st4" d="M35,74.8c0.2,0.5,0.9,0.6,1.3,0.2l14.3-16c0.4-0.4,0.2-1.1-0.3-1.2l-25.1-8.1c-0.6-0.2-1.2,0.4-0.9,1L35,74.8
			z"/>
	</g>
	<g>
		<linearGradient id="SVGID_6_" gradientUnits="userSpaceOnUse" x1="15.1565" y1="33" x2="15.1565" y2="151.423">
			<stop  offset="0" style="stop-color:#E28617"/>
			<stop  offset="1" style="stop-color:#EBB222"/>
		</linearGradient>
		<path class="st5" d="M2.8,114.8l24,10.8c0.5,0.2,1.1-0.1,1.1-0.7l0-21.5c0-0.6-0.6-0.9-1.1-0.7l-24,10.7
			C2.2,113.6,2.2,114.5,2.8,114.8z"/>
	</g>
	<g>
		<linearGradient id="SVGID_7_" gradientUnits="userSpaceOnUse" x1="100" y1="33" x2="100" y2="151.423">
			<stop  offset="0" style="stop-color:#E28617"/>
			<stop  offset="1" style="stop-color:#EBB222"/>
		</linearGradient>
		<path class="st6" d="M5.8,163.3c25-20.3,43.1-27.1,94.2-27.1c51.3,0,70.2,7.1,94.2,27.1c1.3,1.1,3.3,1,4.4-0.4
			c1.1-1.3,1-3.3-0.4-4.4c-14.1-11.8-26.5-19.3-44-23.6c0.1-0.3,0.2-0.6,0.2-0.5c2.5-6.8,3.7-14.2,3.4-21.9
			C156.5,83,132.9,58.8,103.6,57c-33.5-2-61.4,24.6-61.4,57.7c0,6.9,1.2,13.5,3.4,19.6c0,0,0,0,0,0c0,0.2,0.1,0.5,0.2,0.7
			c-17.2,4.4-29.6,11.9-44,23.5c-1.3,1.1-1.5,3.1-0.4,4.4C2.5,164.2,4.5,164.4,5.8,163.3z"/>
	</g>
</g>
</svg>
