<?xml version="1.0" encoding="utf-8"?>
<!-- Generator: Adobe Illustrator 21.1.0, SVG Export Plug-In . SVG Version: 6.00 Build 0)  -->
<svg version="1.1" id="Layer_1" xmlns="http://www.w3.org/2000/svg" xmlns:xlink="http://www.w3.org/1999/xlink" x="0px" y="0px"
	 viewBox="0 0 200 200" style="enable-background:new 0 0 200 200;" xml:space="preserve">
<style type="text/css">
	.st0{fill:url(#SVGID_1_);}
	.st1{fill:url(#SVGID_2_);}
	.st2{fill:url(#SVGID_3_);}
	.st3{fill:url(#SVGID_4_);}
</style>
<g>
	<g>
		
			<linearGradient id="SVGID_1_" gradientUnits="userSpaceOnUse" x1="6.6771" y1="173.6695" x2="192.6053" y2="173.6695" gradientTransform="matrix(1 0 0 -1 0 200)">
			<stop  offset="0" style="stop-color:#5470B6"/>
			<stop  offset="1" style="stop-color:#354052"/>
		</linearGradient>
		<path class="st0" d="M105,29.6c0.7,0.5,1,1.4,0.7,2.3l-3.4,10.6c-0.2,0.6,0.5,1.1,1,0.7l8.9-6.6c0.7-0.5,1.7-0.5,2.4,0l9.1,6.4
			c0.5,0.4,1.2-0.2,1-0.7l-3.5-10.5c-0.3-0.8,0-1.8,0.7-2.4l8.9-6.6c0.5-0.4,0.3-1.2-0.4-1.2l-11.1,0.1c-0.9,0-1.7-0.5-2-1.4
			l-3.5-10.5c-0.2-0.6-1.1-0.6-1.3,0l-3.4,10.6c-0.3,0.8-1.1,1.4-2,1.4L96.4,22c-0.6,0-0.9,0.8-0.4,1.2L105,29.6z"/>
	</g>
	<g>
		
			<linearGradient id="SVGID_2_" gradientUnits="userSpaceOnUse" x1="6.6771" y1="82.827" x2="192.6053" y2="82.827" gradientTransform="matrix(1 0 0 -1 0 200)">
			<stop  offset="0" style="stop-color:#5470B6"/>
			<stop  offset="1" style="stop-color:#354052"/>
		</linearGradient>
		<path class="st1" d="M188.4,112.5l-11.1,0.1c-0.9,0-1.7-0.5-2-1.4l-3.5-10.5c-0.2-0.6-1.1-0.6-1.3,0l-3.4,10.6
			c-0.3,0.8-1.1,1.4-2,1.4l-11.1,0.1c-0.6,0-0.9,0.8-0.4,1.2l9.1,6.4c0.7,0.5,1,1.4,0.7,2.3l-3.4,10.6c-0.2,0.6,0.5,1.1,1,0.7
			l8.9-6.6c0.7-0.5,1.7-0.5,2.4,0l9.1,6.4c0.5,0.4,1.2-0.2,1-0.7l-3.5-10.5c-0.3-0.8,0-1.8,0.7-2.4l8.9-6.6
			C189.3,113.4,189,112.5,188.4,112.5z"/>
	</g>
	<g>
		
			<linearGradient id="SVGID_3_" gradientUnits="userSpaceOnUse" x1="6.6771" y1="102.8078" x2="192.6053" y2="102.8078" gradientTransform="matrix(1 0 0 -1 0 200)">
			<stop  offset="0" style="stop-color:#5470B6"/>
			<stop  offset="1" style="stop-color:#354052"/>
		</linearGradient>
		<path class="st2" d="M100.4,100.5c0.7,0.5,1,1.4,0.7,2.3l-3.4,10.6c-0.2,0.6,0.5,1.1,1,0.7l8.9-6.6c0.7-0.5,1.7-0.5,2.4,0l9.1,6.4
			c0.5,0.4,1.2-0.2,1-0.7l-3.5-10.5c-0.3-0.8,0-1.8,0.7-2.4l8.9-6.6c0.5-0.4,0.3-1.2-0.4-1.2l-11.1,0.1c-0.9,0-1.7-0.5-2-1.4
			l-3.5-10.5c-0.2-0.6-1.1-0.6-1.3,0l-3.4,10.6c-0.3,0.8-1.1,1.4-2,1.4l-11.1,0.1c-0.6,0-0.9,0.8-0.4,1.2L100.4,100.5z"/>
	</g>
	<g>
		
			<linearGradient id="SVGID_4_" gradientUnits="userSpaceOnUse" x1="6.6771" y1="99.7595" x2="192.6053" y2="99.7595" gradientTransform="matrix(1 0 0 -1 0 200)">
			<stop  offset="0" style="stop-color:#5470B6"/>
			<stop  offset="1" style="stop-color:#354052"/>
		</linearGradient>
		<path class="st3" d="M169.2,160.4c-3.8,0.9-7.7,1.6-11.7,2c-51,5.4-96.8-31.5-102.2-82.6c-2.7-25.4,5.1-49.5,19.9-68
			c0.8-1-0.3-2.4-1.4-2c-42,14.4-69.4,57.5-61.4,103.8c7.9,45.9,49.7,79.3,96.2,76.8c24.6-1.3,46.1-11.9,61.8-28
			C171.3,161.7,170.5,160.1,169.2,160.4z"/>
	</g>
</g>
</svg>
